<mxfile host="app.diagrams.net" modified="2021-12-21T21:57:49.273Z" agent="5.0 (Windows NT 10.0; Win64; x64) AppleWebKit/537.36 (KHTML, like Gecko) Chrome/96.0.4664.110 Safari/537.36" etag="EE8Y0nmzldZM8xjqBium" version="16.0.2" type="github">
  <diagram id="UJAckU56yTo1n7ERILQp" name="Page-1">
    <mxGraphModel dx="2377" dy="835" grid="1" gridSize="10" guides="1" tooltips="1" connect="1" arrows="1" fold="1" page="1" pageScale="1" pageWidth="827" pageHeight="1169" math="0" shadow="0">
      <root>
        <mxCell id="0" />
        <mxCell id="1" parent="0" />
        <mxCell id="UiGq9_0kQtQ2jx2sIYrb-23" value="CORE" style="rounded=0;whiteSpace=wrap;html=1;fontSize=24;verticalAlign=top;" parent="1" vertex="1">
          <mxGeometry x="-170" y="160" width="850" height="690" as="geometry" />
        </mxCell>
        <mxCell id="UiGq9_0kQtQ2jx2sIYrb-8" value="Spring Boot Application" style="rounded=1;whiteSpace=wrap;html=1;verticalAlign=top;" parent="1" vertex="1">
          <mxGeometry x="58" y="481" width="340" height="269" as="geometry" />
        </mxCell>
        <mxCell id="UiGq9_0kQtQ2jx2sIYrb-4" value="Browser" style="rounded=1;whiteSpace=wrap;html=1;" parent="1" vertex="1">
          <mxGeometry x="-99" y="270" width="120" height="60" as="geometry" />
        </mxCell>
        <mxCell id="UiGq9_0kQtQ2jx2sIYrb-5" value="Angular Application" style="rounded=1;whiteSpace=wrap;html=1;verticalAlign=top;" parent="1" vertex="1">
          <mxGeometry x="60" y="210" width="340" height="180" as="geometry" />
        </mxCell>
        <mxCell id="UiGq9_0kQtQ2jx2sIYrb-6" value="Components" style="rounded=1;whiteSpace=wrap;html=1;" parent="1" vertex="1">
          <mxGeometry x="170" y="238" width="120" height="60" as="geometry" />
        </mxCell>
        <mxCell id="UiGq9_0kQtQ2jx2sIYrb-7" value="Services" style="rounded=1;whiteSpace=wrap;html=1;" parent="1" vertex="1">
          <mxGeometry x="170" y="319" width="120" height="60" as="geometry" />
        </mxCell>
        <mxCell id="UiGq9_0kQtQ2jx2sIYrb-9" value="RestController" style="rounded=1;whiteSpace=wrap;html=1;" parent="1" vertex="1">
          <mxGeometry x="170" y="510" width="120" height="60" as="geometry" />
        </mxCell>
        <mxCell id="UiGq9_0kQtQ2jx2sIYrb-10" value="Services" style="rounded=1;whiteSpace=wrap;html=1;" parent="1" vertex="1">
          <mxGeometry x="170" y="591" width="120" height="60" as="geometry" />
        </mxCell>
        <mxCell id="UiGq9_0kQtQ2jx2sIYrb-11" value="Repositories" style="rounded=1;whiteSpace=wrap;html=1;" parent="1" vertex="1">
          <mxGeometry x="170" y="671" width="120" height="60" as="geometry" />
        </mxCell>
        <mxCell id="UiGq9_0kQtQ2jx2sIYrb-13" value="HTTP Client" style="rounded=1;whiteSpace=wrap;html=1;" parent="1" vertex="1">
          <mxGeometry x="170" y="404" width="120" height="60" as="geometry" />
        </mxCell>
        <mxCell id="UiGq9_0kQtQ2jx2sIYrb-17" value="" style="verticalLabelPosition=bottom;html=1;verticalAlign=top;align=center;strokeColor=none;fillColor=#00BEF2;shape=mxgraph.azure.dropbox_code_source;" parent="1" vertex="1">
          <mxGeometry x="460" y="640.63" width="50" height="47.5" as="geometry" />
        </mxCell>
        <mxCell id="UiGq9_0kQtQ2jx2sIYrb-18" value="Azure Storage" style="text;html=1;strokeColor=none;fillColor=none;align=center;verticalAlign=middle;whiteSpace=wrap;rounded=0;" parent="1" vertex="1">
          <mxGeometry x="1960" y="1530" width="85" height="30" as="geometry" />
        </mxCell>
        <mxCell id="UiGq9_0kQtQ2jx2sIYrb-19" value="Azure Storage" style="text;html=1;strokeColor=none;fillColor=none;align=center;verticalAlign=middle;whiteSpace=wrap;rounded=0;" parent="1" vertex="1">
          <mxGeometry x="450" y="691.63" width="80" height="19" as="geometry" />
        </mxCell>
        <mxCell id="UiGq9_0kQtQ2jx2sIYrb-22" value="" style="aspect=fixed;html=1;points=[];align=center;image;fontSize=12;image=img/lib/azure2/app_services/API_Management_Services.svg;" parent="1" vertex="1">
          <mxGeometry x="452.5" y="529.38" width="65" height="60" as="geometry" />
        </mxCell>
        <mxCell id="UiGq9_0kQtQ2jx2sIYrb-27" value="Api Management" style="text;html=1;strokeColor=none;fillColor=none;align=center;verticalAlign=middle;whiteSpace=wrap;rounded=0;fontSize=12;" parent="1" vertex="1">
          <mxGeometry x="430" y="579.38" width="110" height="30" as="geometry" />
        </mxCell>
        <mxCell id="UiGq9_0kQtQ2jx2sIYrb-32" value="" style="endArrow=classic;html=1;rounded=0;fontSize=12;entryX=0;entryY=0.5;entryDx=0;entryDy=0;exitX=1;exitY=0.5;exitDx=0;exitDy=0;startArrow=classic;startFill=1;" parent="1" source="UiGq9_0kQtQ2jx2sIYrb-4" target="UiGq9_0kQtQ2jx2sIYrb-5" edge="1">
          <mxGeometry width="50" height="50" relative="1" as="geometry">
            <mxPoint x="-60" y="320" as="sourcePoint" />
            <mxPoint x="-10" y="270" as="targetPoint" />
          </mxGeometry>
        </mxCell>
        <mxCell id="UiGq9_0kQtQ2jx2sIYrb-33" value="" style="endArrow=classic;html=1;rounded=0;fontSize=12;entryX=0.5;entryY=0;entryDx=0;entryDy=0;exitX=0.5;exitY=1;exitDx=0;exitDy=0;startArrow=classic;startFill=1;" parent="1" source="UiGq9_0kQtQ2jx2sIYrb-6" target="UiGq9_0kQtQ2jx2sIYrb-7" edge="1">
          <mxGeometry width="50" height="50" relative="1" as="geometry">
            <mxPoint x="300" y="440" as="sourcePoint" />
            <mxPoint x="350" y="390" as="targetPoint" />
          </mxGeometry>
        </mxCell>
        <mxCell id="UiGq9_0kQtQ2jx2sIYrb-34" value="" style="endArrow=classic;html=1;rounded=0;fontSize=12;exitX=0.5;exitY=1;exitDx=0;exitDy=0;entryX=0.5;entryY=0;entryDx=0;entryDy=0;startArrow=classic;startFill=1;" parent="1" source="UiGq9_0kQtQ2jx2sIYrb-7" target="UiGq9_0kQtQ2jx2sIYrb-13" edge="1">
          <mxGeometry width="50" height="50" relative="1" as="geometry">
            <mxPoint x="260" y="460" as="sourcePoint" />
            <mxPoint x="310" y="410" as="targetPoint" />
          </mxGeometry>
        </mxCell>
        <mxCell id="UiGq9_0kQtQ2jx2sIYrb-35" value="" style="endArrow=classic;html=1;rounded=0;fontSize=12;entryX=0.5;entryY=0;entryDx=0;entryDy=0;exitX=0.5;exitY=1;exitDx=0;exitDy=0;startArrow=classic;startFill=1;" parent="1" source="UiGq9_0kQtQ2jx2sIYrb-13" target="UiGq9_0kQtQ2jx2sIYrb-9" edge="1">
          <mxGeometry width="50" height="50" relative="1" as="geometry">
            <mxPoint x="230" y="459.28932188134524" as="sourcePoint" />
            <mxPoint x="230" y="409.28932188134524" as="targetPoint" />
          </mxGeometry>
        </mxCell>
        <mxCell id="UiGq9_0kQtQ2jx2sIYrb-36" value="" style="endArrow=classic;html=1;rounded=0;fontSize=12;exitX=0.5;exitY=0;exitDx=0;exitDy=0;entryX=0.5;entryY=1;entryDx=0;entryDy=0;startArrow=classic;startFill=1;" parent="1" source="UiGq9_0kQtQ2jx2sIYrb-10" target="UiGq9_0kQtQ2jx2sIYrb-9" edge="1">
          <mxGeometry width="50" height="50" relative="1" as="geometry">
            <mxPoint x="350" y="390" as="sourcePoint" />
            <mxPoint x="300" y="440" as="targetPoint" />
          </mxGeometry>
        </mxCell>
        <mxCell id="UiGq9_0kQtQ2jx2sIYrb-37" value="" style="endArrow=classic;html=1;rounded=0;fontSize=12;exitX=0.5;exitY=1;exitDx=0;exitDy=0;entryX=0.5;entryY=0;entryDx=0;entryDy=0;startArrow=classic;startFill=1;" parent="1" source="UiGq9_0kQtQ2jx2sIYrb-10" target="UiGq9_0kQtQ2jx2sIYrb-11" edge="1">
          <mxGeometry width="50" height="50" relative="1" as="geometry">
            <mxPoint x="300" y="446" as="sourcePoint" />
            <mxPoint x="350" y="396" as="targetPoint" />
          </mxGeometry>
        </mxCell>
        <mxCell id="UiGq9_0kQtQ2jx2sIYrb-39" value="" style="endArrow=classic;html=1;rounded=0;fontSize=12;exitX=1;exitY=0.5;exitDx=0;exitDy=0;" parent="1" source="UiGq9_0kQtQ2jx2sIYrb-10" target="UiGq9_0kQtQ2jx2sIYrb-17" edge="1">
          <mxGeometry width="50" height="50" relative="1" as="geometry">
            <mxPoint x="300" y="440" as="sourcePoint" />
            <mxPoint x="350" y="390" as="targetPoint" />
          </mxGeometry>
        </mxCell>
        <mxCell id="UiGq9_0kQtQ2jx2sIYrb-40" value="" style="endArrow=classic;html=1;rounded=0;fontSize=12;entryX=-0.042;entryY=0.561;entryDx=0;entryDy=0;entryPerimeter=0;startArrow=none;startFill=0;exitX=1;exitY=0.25;exitDx=0;exitDy=0;" parent="1" source="UiGq9_0kQtQ2jx2sIYrb-10" target="UiGq9_0kQtQ2jx2sIYrb-22" edge="1">
          <mxGeometry width="50" height="50" relative="1" as="geometry">
            <mxPoint x="300" y="430" as="sourcePoint" />
            <mxPoint x="350" y="380" as="targetPoint" />
          </mxGeometry>
        </mxCell>
        <mxCell id="UiGq9_0kQtQ2jx2sIYrb-41" value="" style="endArrow=classic;html=1;rounded=0;fontSize=12;exitX=1.048;exitY=0.57;exitDx=0;exitDy=0;exitPerimeter=0;entryX=-0.004;entryY=0.722;entryDx=0;entryDy=0;entryPerimeter=0;startArrow=none;startFill=0;" parent="1" source="UiGq9_0kQtQ2jx2sIYrb-22" edge="1">
          <mxGeometry width="50" height="50" relative="1" as="geometry">
            <mxPoint x="300" y="430" as="sourcePoint" />
            <mxPoint x="599.8000000000002" y="557.2149999999999" as="targetPoint" />
          </mxGeometry>
        </mxCell>
        <mxCell id="UiGq9_0kQtQ2jx2sIYrb-43" value="" style="verticalLabelPosition=bottom;html=1;verticalAlign=top;align=center;strokeColor=none;fillColor=#00BEF2;shape=mxgraph.azure.cloud;fontSize=12;" parent="1" vertex="1">
          <mxGeometry x="600" y="527" width="50" height="32.5" as="geometry" />
        </mxCell>
        <mxCell id="UiGq9_0kQtQ2jx2sIYrb-45" value="Other Systems" style="text;html=1;strokeColor=none;fillColor=none;align=center;verticalAlign=middle;whiteSpace=wrap;rounded=0;fontSize=12;" parent="1" vertex="1">
          <mxGeometry x="580" y="554.5" width="90" height="30" as="geometry" />
        </mxCell>
        <mxCell id="UiGq9_0kQtQ2jx2sIYrb-50" value="BATCH" style="rounded=0;whiteSpace=wrap;html=1;fontSize=24;verticalAlign=top;" parent="1" vertex="1">
          <mxGeometry x="730" y="160" width="830" height="460" as="geometry" />
        </mxCell>
        <mxCell id="UiGq9_0kQtQ2jx2sIYrb-51" value="Spring Batch Application" style="rounded=1;whiteSpace=wrap;html=1;verticalAlign=top;" parent="1" vertex="1">
          <mxGeometry x="888" y="216.38" width="340" height="290" as="geometry" />
        </mxCell>
        <mxCell id="UiGq9_0kQtQ2jx2sIYrb-57" value="Services" style="rounded=1;whiteSpace=wrap;html=1;" parent="1" vertex="1">
          <mxGeometry x="1000" y="347.38" width="120" height="60" as="geometry" />
        </mxCell>
        <mxCell id="UiGq9_0kQtQ2jx2sIYrb-58" value="Repositories" style="rounded=1;whiteSpace=wrap;html=1;" parent="1" vertex="1">
          <mxGeometry x="1000" y="427.38" width="120" height="60" as="geometry" />
        </mxCell>
        <mxCell id="UiGq9_0kQtQ2jx2sIYrb-61" value="" style="verticalLabelPosition=bottom;html=1;verticalAlign=top;align=center;strokeColor=none;fillColor=#00BEF2;shape=mxgraph.azure.dropbox_code_source;" parent="1" vertex="1">
          <mxGeometry x="1290" y="397.01" width="50" height="47.5" as="geometry" />
        </mxCell>
        <mxCell id="UiGq9_0kQtQ2jx2sIYrb-62" value="Azure Storage" style="text;html=1;strokeColor=none;fillColor=none;align=center;verticalAlign=middle;whiteSpace=wrap;rounded=0;" parent="1" vertex="1">
          <mxGeometry x="1280" y="448.01" width="80" height="19" as="geometry" />
        </mxCell>
        <mxCell id="UiGq9_0kQtQ2jx2sIYrb-63" value="" style="aspect=fixed;html=1;points=[];align=center;image;fontSize=12;image=img/lib/azure2/app_services/API_Management_Services.svg;" parent="1" vertex="1">
          <mxGeometry x="1282.5" y="285.76" width="65" height="60" as="geometry" />
        </mxCell>
        <mxCell id="UiGq9_0kQtQ2jx2sIYrb-64" value="Api Management" style="text;html=1;strokeColor=none;fillColor=none;align=center;verticalAlign=middle;whiteSpace=wrap;rounded=0;fontSize=12;" parent="1" vertex="1">
          <mxGeometry x="1260" y="335.76" width="110" height="30" as="geometry" />
        </mxCell>
        <mxCell id="UiGq9_0kQtQ2jx2sIYrb-69" value="" style="endArrow=classic;html=1;rounded=0;fontSize=12;entryX=0.5;entryY=1;entryDx=0;entryDy=0;startArrow=classic;startFill=1;" parent="1" target="UiGq9_0kQtQ2jx2sIYrb-80" edge="1">
          <mxGeometry width="50" height="50" relative="1" as="geometry">
            <mxPoint x="1080" y="346.38" as="sourcePoint" />
            <mxPoint x="1060" y="326.38" as="targetPoint" />
          </mxGeometry>
        </mxCell>
        <mxCell id="UiGq9_0kQtQ2jx2sIYrb-70" value="" style="endArrow=classic;html=1;rounded=0;fontSize=12;exitX=0.5;exitY=1;exitDx=0;exitDy=0;entryX=0.5;entryY=0;entryDx=0;entryDy=0;startArrow=classic;startFill=1;" parent="1" source="UiGq9_0kQtQ2jx2sIYrb-57" target="UiGq9_0kQtQ2jx2sIYrb-58" edge="1">
          <mxGeometry width="50" height="50" relative="1" as="geometry">
            <mxPoint x="1130" y="202.38" as="sourcePoint" />
            <mxPoint x="1180" y="152.38" as="targetPoint" />
          </mxGeometry>
        </mxCell>
        <mxCell id="UiGq9_0kQtQ2jx2sIYrb-71" value="" style="endArrow=classic;html=1;rounded=0;fontSize=12;exitX=0.5;exitY=1;exitDx=0;exitDy=0;entryX=0.5;entryY=0;entryDx=0;entryDy=0;startArrow=classic;startFill=1;" parent="1" source="UiGq9_0kQtQ2jx2sIYrb-58" edge="1">
          <mxGeometry width="50" height="50" relative="1" as="geometry">
            <mxPoint x="1130" y="202.38" as="sourcePoint" />
            <mxPoint x="1060" y="519.3800000000001" as="targetPoint" />
          </mxGeometry>
        </mxCell>
        <mxCell id="UiGq9_0kQtQ2jx2sIYrb-72" value="" style="endArrow=classic;html=1;rounded=0;fontSize=12;exitX=1;exitY=0.5;exitDx=0;exitDy=0;startArrow=classic;startFill=1;" parent="1" source="UiGq9_0kQtQ2jx2sIYrb-57" target="UiGq9_0kQtQ2jx2sIYrb-61" edge="1">
          <mxGeometry width="50" height="50" relative="1" as="geometry">
            <mxPoint x="1130" y="196.38" as="sourcePoint" />
            <mxPoint x="1180" y="146.38" as="targetPoint" />
          </mxGeometry>
        </mxCell>
        <mxCell id="UiGq9_0kQtQ2jx2sIYrb-73" value="" style="endArrow=classic;html=1;rounded=0;fontSize=12;entryX=-0.042;entryY=0.561;entryDx=0;entryDy=0;entryPerimeter=0;startArrow=none;startFill=0;exitX=1.012;exitY=0.39;exitDx=0;exitDy=0;exitPerimeter=0;" parent="1" source="UiGq9_0kQtQ2jx2sIYrb-57" target="UiGq9_0kQtQ2jx2sIYrb-63" edge="1">
          <mxGeometry width="50" height="50" relative="1" as="geometry">
            <mxPoint x="1120" y="376.38" as="sourcePoint" />
            <mxPoint x="1180" y="136.38" as="targetPoint" />
          </mxGeometry>
        </mxCell>
        <mxCell id="UiGq9_0kQtQ2jx2sIYrb-74" value="" style="endArrow=classic;html=1;rounded=0;fontSize=12;exitX=1.048;exitY=0.57;exitDx=0;exitDy=0;exitPerimeter=0;entryX=-0.004;entryY=0.722;entryDx=0;entryDy=0;entryPerimeter=0;startArrow=none;startFill=0;" parent="1" source="UiGq9_0kQtQ2jx2sIYrb-63" edge="1">
          <mxGeometry width="50" height="50" relative="1" as="geometry">
            <mxPoint x="1130" y="186.38" as="sourcePoint" />
            <mxPoint x="1429.8000000000002" y="313.59500000000014" as="targetPoint" />
          </mxGeometry>
        </mxCell>
        <mxCell id="UiGq9_0kQtQ2jx2sIYrb-75" value="" style="verticalLabelPosition=bottom;html=1;verticalAlign=top;align=center;strokeColor=none;fillColor=#00BEF2;shape=mxgraph.azure.cloud;fontSize=12;" parent="1" vertex="1">
          <mxGeometry x="1430" y="283.38" width="50" height="32.5" as="geometry" />
        </mxCell>
        <mxCell id="UiGq9_0kQtQ2jx2sIYrb-76" value="Other Systems" style="text;html=1;strokeColor=none;fillColor=none;align=center;verticalAlign=middle;whiteSpace=wrap;rounded=0;fontSize=12;" parent="1" vertex="1">
          <mxGeometry x="1410" y="310.88" width="90" height="30" as="geometry" />
        </mxCell>
        <mxCell id="UiGq9_0kQtQ2jx2sIYrb-77" value="" style="sketch=0;aspect=fixed;html=1;points=[];align=center;image;fontSize=12;image=img/lib/mscae/Event_Hub_Clusters.svg;fillColor=none;" parent="1" vertex="1">
          <mxGeometry x="784" y="325.01" width="50" height="48" as="geometry" />
        </mxCell>
        <mxCell id="UiGq9_0kQtQ2jx2sIYrb-78" value="Event Hub" style="text;html=1;strokeColor=none;fillColor=none;align=center;verticalAlign=middle;whiteSpace=wrap;rounded=0;fontSize=12;" parent="1" vertex="1">
          <mxGeometry x="780" y="367.01" width="60" height="30" as="geometry" />
        </mxCell>
        <mxCell id="UiGq9_0kQtQ2jx2sIYrb-79" value="Consumers" style="rounded=1;whiteSpace=wrap;html=1;fontSize=12;fillColor=none;" parent="1" vertex="1">
          <mxGeometry x="930" y="250.88" width="120" height="60" as="geometry" />
        </mxCell>
        <mxCell id="UiGq9_0kQtQ2jx2sIYrb-80" value="Scheduled Jobs" style="rounded=1;whiteSpace=wrap;html=1;fontSize=12;fillColor=none;" parent="1" vertex="1">
          <mxGeometry x="1070" y="250.88" width="120" height="60" as="geometry" />
        </mxCell>
        <mxCell id="UiGq9_0kQtQ2jx2sIYrb-81" value="" style="endArrow=none;html=1;rounded=0;fontSize=12;entryX=0.5;entryY=1;entryDx=0;entryDy=0;startArrow=classic;startFill=1;endFill=0;" parent="1" target="UiGq9_0kQtQ2jx2sIYrb-79" edge="1">
          <mxGeometry width="50" height="50" relative="1" as="geometry">
            <mxPoint x="1040" y="346.38" as="sourcePoint" />
            <mxPoint x="1130" y="345.7600000000001" as="targetPoint" />
          </mxGeometry>
        </mxCell>
        <mxCell id="UiGq9_0kQtQ2jx2sIYrb-82" value="" style="endArrow=none;html=1;rounded=0;fontSize=12;exitX=0;exitY=0.5;exitDx=0;exitDy=0;entryX=0.98;entryY=0.695;entryDx=0;entryDy=0;startArrow=classic;startFill=1;entryPerimeter=0;endFill=0;" parent="1" source="UiGq9_0kQtQ2jx2sIYrb-79" target="UiGq9_0kQtQ2jx2sIYrb-77" edge="1">
          <mxGeometry width="50" height="50" relative="1" as="geometry">
            <mxPoint x="1070" y="357.38" as="sourcePoint" />
            <mxPoint x="990" y="345.7600000000001" as="targetPoint" />
          </mxGeometry>
        </mxCell>
        <mxCell id="UiGq9_0kQtQ2jx2sIYrb-83" value="" style="aspect=fixed;html=1;points=[];align=center;image;fontSize=12;image=img/lib/azure2/devops/Application_Insights.svg;fillColor=none;" parent="1" vertex="1">
          <mxGeometry x="468.5" y="373.01" width="44" height="63" as="geometry" />
        </mxCell>
        <mxCell id="UiGq9_0kQtQ2jx2sIYrb-84" value="" style="aspect=fixed;html=1;points=[];align=center;image;fontSize=12;image=img/lib/azure2/internet_of_things/Time_Series_Insights_Access_Policies.svg;fillColor=none;" parent="1" vertex="1">
          <mxGeometry x="469" y="731" width="42" height="68" as="geometry" />
        </mxCell>
        <mxCell id="UiGq9_0kQtQ2jx2sIYrb-85" value="" style="endArrow=classic;html=1;rounded=0;fontSize=12;entryX=-0.073;entryY=0.552;entryDx=0;entryDy=0;entryPerimeter=0;exitX=1;exitY=0;exitDx=0;exitDy=0;" parent="1" source="UiGq9_0kQtQ2jx2sIYrb-10" target="UiGq9_0kQtQ2jx2sIYrb-83" edge="1">
          <mxGeometry width="50" height="50" relative="1" as="geometry">
            <mxPoint x="740" y="460" as="sourcePoint" />
            <mxPoint x="790" y="410" as="targetPoint" />
          </mxGeometry>
        </mxCell>
        <mxCell id="UiGq9_0kQtQ2jx2sIYrb-86" value="" style="endArrow=none;html=1;rounded=0;fontSize=12;exitX=1;exitY=0.75;exitDx=0;exitDy=0;startArrow=classic;startFill=1;endFill=0;" parent="1" source="UiGq9_0kQtQ2jx2sIYrb-10" target="UiGq9_0kQtQ2jx2sIYrb-84" edge="1">
          <mxGeometry width="50" height="50" relative="1" as="geometry">
            <mxPoint x="300" y="631" as="sourcePoint" />
            <mxPoint x="470" y="668.8184615384616" as="targetPoint" />
          </mxGeometry>
        </mxCell>
        <mxCell id="UiGq9_0kQtQ2jx2sIYrb-87" value="Application Insights" style="text;html=1;strokeColor=none;fillColor=none;align=center;verticalAlign=middle;whiteSpace=wrap;rounded=0;fontSize=12;" parent="1" vertex="1">
          <mxGeometry x="434.5" y="427.39" width="111" height="30" as="geometry" />
        </mxCell>
        <mxCell id="UiGq9_0kQtQ2jx2sIYrb-88" value="Key Vault" style="text;html=1;strokeColor=none;fillColor=none;align=center;verticalAlign=middle;whiteSpace=wrap;rounded=0;fontSize=12;" parent="1" vertex="1">
          <mxGeometry x="463" y="790" width="60" height="30" as="geometry" />
        </mxCell>
        <mxCell id="UiGq9_0kQtQ2jx2sIYrb-89" value="" style="endArrow=classic;html=1;rounded=0;fontSize=12;" parent="1" source="UiGq9_0kQtQ2jx2sIYrb-7" edge="1">
          <mxGeometry width="50" height="50" relative="1" as="geometry">
            <mxPoint x="740" y="450" as="sourcePoint" />
            <mxPoint x="470" y="390" as="targetPoint" />
          </mxGeometry>
        </mxCell>
        <mxCell id="UiGq9_0kQtQ2jx2sIYrb-90" value="" style="aspect=fixed;html=1;points=[];align=center;image;fontSize=12;image=img/lib/azure2/internet_of_things/Time_Series_Insights_Access_Policies.svg;fillColor=none;" parent="1" vertex="1">
          <mxGeometry x="1291" y="481" width="42" height="68" as="geometry" />
        </mxCell>
        <mxCell id="UiGq9_0kQtQ2jx2sIYrb-91" value="Key Vault" style="text;html=1;strokeColor=none;fillColor=none;align=center;verticalAlign=middle;whiteSpace=wrap;rounded=0;fontSize=12;" parent="1" vertex="1">
          <mxGeometry x="1285" y="540" width="60" height="30" as="geometry" />
        </mxCell>
        <mxCell id="UiGq9_0kQtQ2jx2sIYrb-92" value="" style="aspect=fixed;html=1;points=[];align=center;image;fontSize=12;image=img/lib/azure2/devops/Application_Insights.svg;fillColor=none;" parent="1" vertex="1">
          <mxGeometry x="1290.5" y="185.62" width="44" height="63" as="geometry" />
        </mxCell>
        <mxCell id="UiGq9_0kQtQ2jx2sIYrb-93" value="Application Insights" style="text;html=1;strokeColor=none;fillColor=none;align=center;verticalAlign=middle;whiteSpace=wrap;rounded=0;fontSize=12;" parent="1" vertex="1">
          <mxGeometry x="1256.5" y="240" width="111" height="30" as="geometry" />
        </mxCell>
        <mxCell id="UiGq9_0kQtQ2jx2sIYrb-94" value="" style="endArrow=classic;html=1;rounded=0;fontSize=12;entryX=1;entryY=0.75;entryDx=0;entryDy=0;" parent="1" source="UiGq9_0kQtQ2jx2sIYrb-90" target="UiGq9_0kQtQ2jx2sIYrb-57" edge="1">
          <mxGeometry width="50" height="50" relative="1" as="geometry">
            <mxPoint x="870" y="450" as="sourcePoint" />
            <mxPoint x="920" y="400" as="targetPoint" />
          </mxGeometry>
        </mxCell>
        <mxCell id="UiGq9_0kQtQ2jx2sIYrb-95" value="" style="endArrow=none;html=1;rounded=0;fontSize=12;entryX=1;entryY=0.25;entryDx=0;entryDy=0;startArrow=classic;startFill=1;endFill=0;" parent="1" source="UiGq9_0kQtQ2jx2sIYrb-92" target="UiGq9_0kQtQ2jx2sIYrb-57" edge="1">
          <mxGeometry width="50" height="50" relative="1" as="geometry">
            <mxPoint x="1301" y="511.58843750000005" as="sourcePoint" />
            <mxPoint x="1130" y="402.3800000000001" as="targetPoint" />
          </mxGeometry>
        </mxCell>
        <mxCell id="ZKW1SVTCNOr50cMUJew4-1" value="" style="endArrow=none;html=1;rounded=0;fontSize=12;entryX=0;entryY=0.5;entryDx=0;entryDy=0;exitX=1;exitY=0;exitDx=0;exitDy=0;startArrow=classic;startFill=1;endFill=0;" edge="1" parent="1" source="UiGq9_0kQtQ2jx2sIYrb-78" target="UiGq9_0kQtQ2jx2sIYrb-57">
          <mxGeometry width="50" height="50" relative="1" as="geometry">
            <mxPoint x="970" y="220" as="sourcePoint" />
            <mxPoint x="1020" y="170" as="targetPoint" />
          </mxGeometry>
        </mxCell>
        <mxCell id="ZKW1SVTCNOr50cMUJew4-4" value="" style="aspect=fixed;html=1;points=[];align=center;image;fontSize=12;image=img/lib/azure2/databases/SQL_Server.svg;fillColor=none;" vertex="1" parent="1">
          <mxGeometry x="1026" y="521.38" width="68" height="68" as="geometry" />
        </mxCell>
        <mxCell id="ZKW1SVTCNOr50cMUJew4-5" value="" style="endArrow=classic;html=1;rounded=0;fontSize=12;exitX=0.5;exitY=1;exitDx=0;exitDy=0;startArrow=classic;startFill=1;" edge="1" parent="1">
          <mxGeometry width="50" height="50" relative="1" as="geometry">
            <mxPoint x="230" y="731" as="sourcePoint" />
            <mxPoint x="230" y="770" as="targetPoint" />
          </mxGeometry>
        </mxCell>
        <mxCell id="ZKW1SVTCNOr50cMUJew4-6" value="" style="aspect=fixed;html=1;points=[];align=center;image;fontSize=12;image=img/lib/azure2/databases/SQL_Server.svg;fillColor=none;" vertex="1" parent="1">
          <mxGeometry x="196" y="770" width="68" height="68" as="geometry" />
        </mxCell>
      </root>
    </mxGraphModel>
  </diagram>
</mxfile>
